:FULLY-SPECIFIED
:FORCE-ALL-JOINTS-BE-3DOF
:DEGREES
102
root 7.42517 16.5761 -26.6745 -6.13595 7.56995 3.57789
lfemur -9.08384 11.2932 -21.1391
ltibia 36.0087 0 0
lfoot -22.4525 -9.43438 0
ltoes 33.057 0 0
rfemur -83.9821 -19.6194 50.0163
rtibia 81.3654 0 0
rfoot 8.13556 18.9822 0
rtoes -24.8492 0 0
lowerback 12.8218 -2.04247 -8.15197
upperback 3.86452 -3.86877 -0.982966
thorax -2.53241 -1.90892 4.45855
lowerneck -11.9031 -1.02091 -0.055415
upperneck -0.0747048 -1.44539 2.47343
head 2.03714 -0.635887 0.744442
lclavicle -2.76507e-14 5.33531e-15 0
lhumerus -41.122 -20.5576 92.076
lradius 49.006 0 0
lwrist 14.7521 0 0
lhand 5.3086 6.01379 0
lfingers 7.12502 0 0
lthumb 30.6322 33.1651 0
rclavicle -2.76507e-14 5.33531e-15 0
rhumerus -44.9073 -22.5924 -64.0126
rradius 73.7435 0 0
rwrist -29.0968 0 0
rhand -27.6776 -25.5819 0
rfingers 7.12502 0 0
rthumb -1.07464 -55.5568 0
103
root 7.43754 16.5732 -26.6598 -6.2962 7.68366 3.64117
lfemur -8.97219 11.3874 -21.1439
ltibia 36.0184 0 0
lfoot -22.2848 -9.58016 0
ltoes 32.9979 0 0
rfemur -84.6598 -19.8284 50.3385
rtibia 81.8556 0 0
rfoot 8.55087 19.2828 0
rtoes -25.314 0 0
lowerback 12.9874 -2.10258 -8.18553
upperback 3.93177 -3.96222 -1.02461
thorax -2.54151 -1.95676 4.44319
lowerneck -11.9246 -1.0081 -0.0772756
upperneck -0.0607042 -1.42728 2.51389
head 2.04634 -0.625608 0.761665
lclavicle -2.66009e-14 5.8057e-15 0
lhumerus -41.1116 -20.6644 92.0032
lradius 49.1534 0 0
lwrist 14.8784 0 0
lhand 5.48807 6.05321 0
lfingers 7.12502 0 0
lthumb 30.804 33.1798 0
rclavicle -2.66009e-14 5.8057e-15 0
rhumerus -44.918 -22.7822 -63.7938
rradius 74.0815 0 0
rwrist -29.4998 0 0
rhand -27.7237 -25.621 0
rfingers 7.12502 0 0
rthumb -1.1191 -55.5958 0
104
root 7.44978 16.5703 -26.6453 -6.45484 7.79632 3.70381
lfemur -8.86172 11.4807 -21.1485
ltibia 36.0282 0 0
lfoot -22.1188 -9.72457 0
ltoes 32.9395 0 0
rfemur -85.3309 -20.0354 50.6574
rtibia 82.3412 0 0
rfoot 8.96276 19.58 0
rtoes -25.7727 0 0
lowerback 13.1514 -2.16212 -8.21873
upperback 3.99834 -4.05477 -1.06585
thorax -2.55053 -2.00415 4.42798
lowerneck -11.9459 -0.995422 -0.0989307
upperneck -0.0468435 -1.40937 2.55398
head 2.05545 -0.615437 0.778725
lclavicle -2.55578e-14 6.2689e-15 0
lhumerus -41.1012 -20.7701 91.9311
lradius 49.2993 0 0
lwrist 15.0035 0 0
lhand 5.66586 6.09227 0
lfingers 7.12502 0 0
lthumb 30.9743 33.1944 0
rclavicle -2.55578e-14 6.2689e-15 0
rhumerus -44.9286 -22.9701 -63.5772
rradius 74.4162 0 0
rwrist -29.8987 0 0
rhand -27.7697 -25.66 0
rfingers 7.12502 0 0
rthumb -1.16356 -55.6347 0
105
root 7.4619 16.5674 -26.631 -6.61181 7.90791 3.76577
lfemur -8.75245 11.5731 -21.1531
ltibia 36.0378 0 0
lfoot -21.9544 -9.86758 0
ltoes 32.8816 0 0
rfemur -85.9951 -20.2403 50.9729
rtibia 82.8222 0 0
rfoot 9.37111 19.8739 0
rtoes -26.2253 0 0
lowerback 13.3137 -2.22108 -8.25158
upperback 4.06421 -4.14641 -1.10667
thorax -2.55945 -2.05106 4.41292
lowerneck -11.9669 -0.98289 -0.120374
upperneck -0.0331271 -1.39166 2.59367
head 2.06447 -0.605378 0.795618
lclavicle -2.45218e-14 6.72468e-15 0
lhumerus -41.0909 -20.8749 91.8597
lradius 49.4436 0 0
lwrist 15.1272 0 0
lhand 5.84191 6.13096 0
lfingers 7.12502 0 0
lthumb 31.1428 33.2088 0
rclavicle -2.45218e-14 6.72468e-15 0
rhumerus -44.9391 -23.1562 -63.363
rradius 74.7476 0 0
rwrist -30.2933 0 0
rhand -27.8157 -25.6989 0
rfingers 7.12502 0 0
rthumb -1.208 -55.6735 0
106
root 7.47388 16.5646 -26.6167 -6.76706 8.0184 3.82705
lfemur -8.64442 11.6645 -21.1576
ltibia 36.0474 0 0
lfoot -21.7919 -10.0091 0
ltoes 32.8244 0 0
rfemur -86.6522 -20.443 51.2849
rtibia 83.2982 0 0
rfoot 9.77582 20.1643 0
rtoes -26.6715 0 0
lowerback 13.4742 -2.27943 -8.28407
upperback 4.12937 -4.2371 -1.14705
thorax -2.56829 -2.09749 4.39801
lowerneck -11.9877 -0.970504 -0.141598
upperneck -0.0195594 -1.37415 2.63296
head 2.07338 -0.595433 0.812338
lclavicle -2.34932e-14 7.17287e-15 0
lhumerus -41.0806 -20.9786 91.7892
lradius 49.5863 0 0
lwrist 15.2496 0 0
lhand 6.01616 6.16926 0
lfingers 7.12502 0 0
lthumb 31.3096 33.2231 0
rclavicle -2.34932e-14 7.17287e-15 0
rhumerus -44.9497 -23.3402 -63.151
rradius 75.0755 0 0
rwrist -30.6835 0 0
rhand -27.8617 -25.7378 0
rfingers 7.12502 0 0
rthumb -1.25241 -55.7123 0
107
root 7.48572 16.5618 -26.6027 -6.92054 8.12774 3.88762
lfemur -8.53767 11.7549 -21.162
ltibia 36.0569 0 0
lfoot -21.6311 -10.1492 0
ltoes 32.7679 0 0
rfemur -87.3019 -20.6434 51.5933
rtibia 83.7693 0 0
rfoot 10.1768 20.451 0
rtoes -27.1113 0 0
lowerback 13.6329 -2.33716 -8.31617
upperback 4.19379 -4.32681 -1.18698
thorax -2.57702 -2.14342 4.38326
lowerneck -12.0083 -0.958269 -0.162596
upperneck -0.00614486 -1.35685 2.67184
head 2.0822 -0.585607 0.82888
lclavicle -2.24722e-14 7.61324e-15 0
lhumerus -41.0704 -21.0813 91.7194
lradius 49.7274 0 0
lwrist 15.3705 0 0
lhand 6.18856 6.20716 0
lfingers 7.12502 0 0
lthumb 31.4747 33.2372 0
rclavicle -2.24722e-14 7.61324e-15 0
rhumerus -44.9602 -23.5222 -62.9415
rradius 75.3999 0 0
rwrist -31.0692 0 0
rhand -27.9077 -25.7766 0
rfingers 7.12502 0 0
rthumb -1.2968 -55.7509 0
108
root 7.49743 16.559 -26.5888 -7.07221 8.23592 3.94746
lfemur -8.43222 11.8443 -21.1664
ltibia 36.0663 0 0
lfoot -21.4722 -10.2877 0
ltoes 32.712 0 0
rfemur -87.9442 -20.8415 51.898
rtibia 84.2353 0 0
rfoot 10.5738 20.734 0
rtoes -27.5443 0 0
lowerback 13.7898 -2.39425 -8.34789
upperback 4.25744 -4.41552 -1.22646
thorax -2.58566 -2.18883 4.36868
lowerneck -12.0287 -0.946189 -0.183363
upperneck 0.00711225 -1.33977 2.71029
head 2.09091 -0.575902 0.84524
lclavicle -2.14593e-14 8.04561e-15 0
lhumerus -41.0603 -21.1828 91.6504
lradius 49.8668 0 0
lwrist 15.49 0 0
lhand 6.35905 6.24462 0
lfingers 7.12502 0 0
lthumb 31.638 33.2512 0
rclavicle -2.14593e-14 8.04561e-15 0
rhumerus -44.9706 -23.7021 -62.7345
rradius 75.7206 0 0
rwrist -31.4503 0 0
rhand -27.9536 -25.8153 0
rfingers 7.12502 0 0
rthumb -1.34115 -55.7894 0
109
root 7.50898 16.5563 -26.5751 -7.22201 8.34288 4.00656
lfemur -8.32813 11.9326 -21.1706
ltibia 36.0757 0 0
lfoot -21.3152 -10.4246 0
ltoes 32.6568 0 0
rfemur -88.5788 -21.0373 52.199
rtibia 84.6959 0 0
rfoot 10.9669 21.0133 0
rtoes -27.9704 0 0
lowerback 13.9447 -2.45068 -8.37921
upperback 4.32032 -4.50319 -1.26546
thorax -2.5942 -2.23371 4.35426
lowerneck -12.0487 -0.934267 -0.203891
upperneck 0.0202075 -1.32292 2.7483
head 2.09952 -0.566321 0.861412
lclavicle -2.04548e-14 8.46977e-15 0
lhumerus -41.0502 -21.2832 91.5823
lradius 50.0044 0 0
lwrist 15.6081 0 0
lhand 6.52759 6.28165 0
lfingers 7.12502 0 0
lthumb 31.7993 33.265 0
rclavicle -2.04548e-14 8.46977e-15 0
rhumerus -44.981 -23.8799 -62.53
rradius 76.0375 0 0
rwrist -31.8267 0 0
rhand -27.9995 -25.8539 0
rfingers 7.12502 0 0
rthumb -1.38547 -55.8278 0
110
root 7.52039 16.5536 -26.5615 -7.3699 8.4486 4.06489
lfemur -8.22541 12.0199 -21.1748
ltibia 36.085 0 0
lfoot -21.1602 -10.5599 0
ltoes 32.6023 0 0
rfemur -89.2055 -21.2306 52.496
rtibia 85.1511 0 0
rfoot 11.3559 21.2886 0
rtoes -28.3895 0 0
lowerback 14.0977 -2.50644 -8.41012
upperback 4.3824 -4.58981 -1.30398
thorax -2.60263 -2.27805 4.34001
lowerneck -12.0686 -0.922508 -0.224174
upperneck 0.0331366 -1.30629 2.78587
head 2.10801 -0.556869 0.877391
lclavicle -1.9459e-14 8.88552e-15 0
lhumerus -41.0403 -21.3825 91.515
lradius 50.1402 0 0
lwrist 15.7246 0 0
lhand 6.6941 6.31822 0
lfingers 7.12502 0 0
lthumb 31.9587 33.2785 0
rclavicle -1.9459e-14 8.88552e-15 0
rhumerus -44.9914 -24.0554 -62.3282
rradius 76.3506 0 0
rwrist -32.1981 0 0
rhand -28.0453 -25.8923 0
rfingers 7.12502 0 0
rthumb -1.42974 -55.8661 0
111
root 7.53165 16.5509 -26.5481 -7.51581 8.55305 4.12244
lfemur -8.12412 12.1061 -21.1789
ltibia 36.0942 0 0
lfoot -21.0072 -10.6936 0
ltoes 32.5485 0 0
rfemur -89.824 -21.4214 52.7891
rtibia 85.6007 0 0
rfoot 11.7406 21.5599 0
rtoes -28.8014 0 0
lowerback 14.2487 -2.5615 -8.44061
upperback 4.44366 -4.67533 -1.342
thorax -2.61095 -2.32182 4.32594
lowerneck -12.0881 -0.910916 -0.244205
upperneck 0.045895 -1.28989 2.82297
head 2.1164 -0.547547 0.893172
lclavicle -1.84723e-14 9.29267e-15 0
lhumerus -41.0303 -21.4805 91.4486
lradius 50.2742 0 0
lwrist 15.8395 0 0
lhand 6.85855 6.35431 0
lfingers 7.12502 0 0
lthumb 32.1162 33.2919 0
rclavicle -1.84723e-14 9.29267e-15 0
rhumerus -45.0017 -24.2286 -62.1291
rradius 76.6597 0 0
rwrist -32.5645 0 0
rhand -28.0911 -25.9307 0
rfingers 7.12502 0 0
rthumb -1.47397 -55.9043 0
112
root 7.54275 16.5482 -26.5349 -7.65971 8.65619 4.17918
lfemur -8.02427 12.1912 -21.1829
ltibia 36.1033 0 0
lfoot -20.8563 -10.8255 0
ltoes 32.4955 0 0
rfemur -90.4342 -21.6097 53.078
rtibia 86.0446 0 0
rfoot 12.121 21.8272 0
rtoes -29.2059 0 0
lowerback 14.3977 -2.61585 -8.47066
upperback 4.50407 -4.75974 -1.37952
thorax -2.61915 -2.36503 4.31205
lowerneck -12.1074 -0.899495 -0.263977
upperneck 0.0584784 -1.27374 2.8596
head 2.12467 -0.53836 0.90875
lclavicle -1.7495e-14 9.69101e-15 0
lhumerus -41.0205 -21.5774 91.3832
lradius 50.4063 0 0
lwrist 15.9528 0 0
lhand 7.02087 6.38991 0
lfingers 7.12502 0 0
lthumb 32.2716 33.3051 0
rclavicle -1.7495e-14 9.69101e-15 0
rhumerus -45.0119 -24.3995 -61.9327
rradius 76.9647 0 0
rwrist -32.9258 0 0
rhand -28.1368 -25.9689 0
rfingers 7.12502 0 0
rthumb -1.51814 -55.9424 0
113
root 7.55369 16.5456 -26.5219 -7.80154 8.75799 4.23509
lfemur -7.92591 12.275 -21.1868
ltibia 36.1124 0 0
lfoot -20.7075 -10.9557 0
ltoes 32.4433 0 0
rfemur -91.0358 -21.7953 53.3628
rtibia 86.4826 0 0
rfoot 12.497 22.0902 0
rtoes -29.6028 0 0
lowerback 14.5445 -2.66947 -8.50028
upperback 4.56363 -4.843 -1.41651
thorax -2.62725 -2.40764 4.29835
lowerneck -12.1264 -0.88825 -0.283485
upperneck 0.0708824 -1.25783 2.89574
head 2.13282 -0.529311 0.92412
lclavicle -1.65273e-14 1.00803e-14 0
lhumerus -41.0107 -21.6729 91.3186
lradius 50.5365 0 0
lwrist 16.0645 0 0
lhand 7.18102 6.42499 0
lfingers 7.12502 0 0
lthumb 32.4249 33.3181 0
rclavicle -1.65273e-14 1.00803e-14 0
rhumerus -45.0221 -24.568 -61.7392
rradius 77.2655 0 0
rwrist -33.2819 0 0
rhand -28.1825 -26.0071 0
rfingers 7.12502 0 0
rthumb -1.56225 -55.9803 0
